<svg xmlns="http://www.w3.org/2000/svg" viewBox="0 0 800 400">
  <defs>
    <filter id="shadow" x="-20%" y="-20%" width="140%" height="140%">
      <feDropShadow dx="2" dy="2" stdDeviation="2" flood-opacity="0.15"/>
    </filter>
  </defs>

  <!-- Title -->
  <text x="400" y="25" text-anchor="middle" font-family="Arial, sans-serif" font-size="18" font-weight="bold" fill="#333">Data Flow - Query Lifecycle</text>

  <!-- Participants -->
  <rect x="50" y="50" width="80" height="40" rx="5" fill="#e3f2fd" stroke="#1976d2" stroke-width="2" filter="url(#shadow)"/>
  <text x="90" y="75" text-anchor="middle" font-family="Arial, sans-serif" font-size="12" font-weight="bold" fill="#1565c0">User</text>

  <rect x="200" y="50" width="80" height="40" rx="5" fill="#fff3e0" stroke="#f57c00" stroke-width="2" filter="url(#shadow)"/>
  <text x="240" y="75" text-anchor="middle" font-family="Arial, sans-serif" font-size="12" font-weight="bold" fill="#e65100">SASHI</text>

  <rect x="350" y="50" width="80" height="40" rx="5" fill="#fce4ec" stroke="#c2185b" stroke-width="2" filter="url(#shadow)"/>
  <text x="390" y="75" text-anchor="middle" font-family="Arial, sans-serif" font-size="12" font-weight="bold" fill="#880e4f">Router</text>

  <rect x="500" y="50" width="80" height="40" rx="5" fill="#f3e5f5" stroke="#7b1fa2" stroke-width="2" filter="url(#shadow)"/>
  <text x="540" y="75" text-anchor="middle" font-family="Arial, sans-serif" font-size="12" font-weight="bold" fill="#6a1b9a">MCP</text>

  <rect x="650" y="50" width="80" height="40" rx="5" fill="#e8f5e9" stroke="#388e3c" stroke-width="2" filter="url(#shadow)"/>
  <text x="690" y="75" text-anchor="middle" font-family="Arial, sans-serif" font-size="12" font-weight="bold" fill="#2e7d32">SQLite</text>

  <!-- Lifelines -->
  <line x1="90" y1="90" x2="90" y2="380" stroke="#1976d2" stroke-width="2" stroke-dasharray="5,5"/>
  <line x1="240" y1="90" x2="240" y2="380" stroke="#f57c00" stroke-width="2" stroke-dasharray="5,5"/>
  <line x1="390" y1="90" x2="390" y2="380" stroke="#c2185b" stroke-width="2" stroke-dasharray="5,5"/>
  <line x1="540" y1="90" x2="540" y2="380" stroke="#7b1fa2" stroke-width="2" stroke-dasharray="5,5"/>
  <line x1="690" y1="90" x2="690" y2="380" stroke="#388e3c" stroke-width="2" stroke-dasharray="5,5"/>

  <!-- Step 1: User to SASHI -->
  <line x1="90" y1="120" x2="230" y2="120" stroke="#333" stroke-width="2" marker-end="url(#arrowhead)"/>
  <rect x="110" y="105" width="100" height="20" rx="3" fill="#fff" stroke="#ddd"/>
  <text x="160" y="118" text-anchor="middle" font-family="Arial, sans-serif" font-size="10" fill="#333">sask "question"</text>
  <defs><marker id="arrowhead" markerWidth="10" markerHeight="7" refX="9" refY="3.5" orient="auto"><polygon points="0 0, 10 3.5, 0 7" fill="#333"/></marker></defs>

  <!-- Step 2: SASHI to Router -->
  <line x1="240" y1="160" x2="380" y2="160" stroke="#333" stroke-width="2" marker-end="url(#arrowhead)"/>
  <rect x="260" y="145" width="100" height="20" rx="3" fill="#fff" stroke="#ddd"/>
  <text x="310" y="158" text-anchor="middle" font-family="Arial, sans-serif" font-size="10" fill="#333">Parse command</text>

  <!-- Step 3: Router self (select backend) -->
  <path d="M 400 200 C 450 200 450 220 400 220" stroke="#333" stroke-width="2" fill="none" marker-end="url(#arrowhead)"/>
  <rect x="410" y="195" width="110" height="20" rx="3" fill="#fff" stroke="#ddd"/>
  <text x="465" y="208" text-anchor="middle" font-family="Arial, sans-serif" font-size="10" fill="#333">Select: DeepSeek</text>

  <!-- Step 4: Router to MCP -->
  <line x1="390" y1="250" x2="530" y2="250" stroke="#333" stroke-width="2" marker-end="url(#arrowhead)"/>
  <rect x="410" y="235" width="100" height="20" rx="3" fill="#fff" stroke="#ddd"/>
  <text x="460" y="248" text-anchor="middle" font-family="Arial, sans-serif" font-size="10" fill="#333">Forward prompt</text>

  <!-- Step 5: MCP API call -->
  <path d="M 550 280 C 600 280 600 300 550 300" stroke="#333" stroke-width="2" fill="none" marker-end="url(#arrowhead)"/>
  <rect x="560" y="275" width="70" height="20" rx="3" fill="#fff" stroke="#ddd"/>
  <text x="595" y="288" text-anchor="middle" font-family="Arial, sans-serif" font-size="10" fill="#333">API call</text>

  <!-- Step 6: MCP response to Router -->
  <line x1="530" y1="320" x2="400" y2="320" stroke="#333" stroke-width="2" stroke-dasharray="4,2" marker-end="url(#arrowhead)"/>
  <rect x="430" y="305" width="80" height="20" rx="3" fill="#e8f5e9" stroke="#ddd"/>
  <text x="470" y="318" text-anchor="middle" font-family="Arial, sans-serif" font-size="10" fill="#333">Response</text>

  <!-- Step 7: Router to SQLite (async) -->
  <line x1="400" y1="340" x2="680" y2="340" stroke="#666" stroke-width="1.5" stroke-dasharray="3,3" marker-end="url(#arrowhead)"/>
  <rect x="480" y="325" width="100" height="20" rx="3" fill="#fff8e1" stroke="#ddd"/>
  <text x="530" y="338" text-anchor="middle" font-family="Arial, sans-serif" font-size="10" fill="#666">Log async</text>

  <!-- Step 8: Router to SASHI -->
  <line x1="380" y1="355" x2="250" y2="355" stroke="#333" stroke-width="2" stroke-dasharray="4,2" marker-end="url(#arrowhead)"/>
  <rect x="280" y="340" width="80" height="20" rx="3" fill="#e8f5e9" stroke="#ddd"/>
  <text x="320" y="353" text-anchor="middle" font-family="Arial, sans-serif" font-size="10" fill="#333">Format</text>

  <!-- Step 9: SASHI to User -->
  <line x1="230" y1="370" x2="100" y2="370" stroke="#333" stroke-width="2" stroke-dasharray="4,2" marker-end="url(#arrowhead)"/>
  <rect x="130" y="355" width="80" height="20" rx="3" fill="#c8e6c9" stroke="#ddd"/>
  <text x="170" y="368" text-anchor="middle" font-family="Arial, sans-serif" font-size="10" fill="#333">Display</text>

  <!-- Step numbers -->
  <circle cx="95" cy="120" r="10" fill="#1976d2"/>
  <text x="95" y="124" text-anchor="middle" font-family="Arial, sans-serif" font-size="10" fill="#fff">1</text>

  <circle cx="245" cy="160" r="10" fill="#f57c00"/>
  <text x="245" y="164" text-anchor="middle" font-family="Arial, sans-serif" font-size="10" fill="#fff">2</text>

  <circle cx="395" cy="210" r="10" fill="#c2185b"/>
  <text x="395" y="214" text-anchor="middle" font-family="Arial, sans-serif" font-size="10" fill="#fff">3</text>

  <circle cx="395" cy="250" r="10" fill="#c2185b"/>
  <text x="395" y="254" text-anchor="middle" font-family="Arial, sans-serif" font-size="10" fill="#fff">4</text>

  <circle cx="545" cy="290" r="10" fill="#7b1fa2"/>
  <text x="545" y="294" text-anchor="middle" font-family="Arial, sans-serif" font-size="10" fill="#fff">5</text>

  <circle cx="525" cy="320" r="10" fill="#7b1fa2"/>
  <text x="525" y="324" text-anchor="middle" font-family="Arial, sans-serif" font-size="10" fill="#fff">6</text>

  <circle cx="405" cy="340" r="10" fill="#388e3c"/>
  <text x="405" y="344" text-anchor="middle" font-family="Arial, sans-serif" font-size="10" fill="#fff">7</text>

  <circle cx="375" cy="355" r="10" fill="#c2185b"/>
  <text x="375" y="359" text-anchor="middle" font-family="Arial, sans-serif" font-size="10" fill="#fff">8</text>

  <circle cx="225" cy="370" r="10" fill="#f57c00"/>
  <text x="225" y="374" text-anchor="middle" font-family="Arial, sans-serif" font-size="10" fill="#fff">9</text>
</svg>
